HIERARCHY
ROOT joint_Root
{
	OFFSET 0.0 0.0 0.0
	CHANNELS 6 Xposition Yposition Zposition Zrotation Xrotation Yrotation 
	JOINT Hips
	{
		OFFSET 4.5925 91.4895 -427.239
		CHANNELS 6 Xposition Yposition Zposition Zrotation Xrotation Yrotation 
		JOINT Spine
		{
			OFFSET 15.7357 0.0 0.0
			CHANNELS 6 Xposition Yposition Zposition Zrotation Xrotation Yrotation 
			JOINT Chest
			{
				OFFSET 8.98455 -0.406207 0.0
				CHANNELS 6 Xposition Yposition Zposition Zrotation Xrotation Yrotation 
				JOINT Neck
				{
					OFFSET 16.3773 0.0 0.0
					CHANNELS 6 Xposition Yposition Zposition Zrotation Xrotation Yrotation 
					JOINT Head
					{
						OFFSET 6.45672 0.0 0.0
						CHANNELS 6 Xposition Yposition Zposition Zrotation Xrotation Yrotation 
						End Site
						{
							OFFSET 0.0 0.0 0.0
						}
					}
				}
				JOINT Shoulder_L
				{
					OFFSET 12.9942 -0.242716 4.98039
					CHANNELS 6 Xposition Yposition Zposition Zrotation Xrotation Yrotation 
					JOINT UpperArm_L
					{
						OFFSET 5.34809 0.0 0.0
						CHANNELS 6 Xposition Yposition Zposition Zrotation Xrotation Yrotation 
						JOINT LowerArm_L
						{
							OFFSET 24.3286 1.87007e-05 0.0
							CHANNELS 6 Xposition Yposition Zposition Zrotation Xrotation Yrotation 
							JOINT Hand_L
							{
								OFFSET 22.2916 0.0 0.0
								CHANNELS 6 Xposition Yposition Zposition Zrotation Xrotation Yrotation 
								End Site
								{
									OFFSET 0.0 0.0 0.0
								}
							}
						}
					}
				}
				JOINT Shoulder_R
				{
					OFFSET 12.9945 -0.242716 -4.98039
					CHANNELS 6 Xposition Yposition Zposition Zrotation Xrotation Yrotation 
					JOINT UpperArm_R
					{
						OFFSET -5.34813 0.0 0.0
						CHANNELS 6 Xposition Yposition Zposition Zrotation Xrotation Yrotation 
						JOINT LowerArm_R
						{
							OFFSET -24.3289 0.000322201 0.0
							CHANNELS 6 Xposition Yposition Zposition Zrotation Xrotation Yrotation 
							JOINT Hand_R
							{
								OFFSET -22.2915 -0.000108084 0.0
								CHANNELS 6 Xposition Yposition Zposition Zrotation Xrotation Yrotation 
								End Site
								{
									OFFSET 0.0 0.0 0.0
								}
							}
						}
					}
				}
			}
		}
		JOINT UpperLeg_L
		{
			OFFSET -2.19248 -6.46944 0.0
			CHANNELS 6 Xposition Yposition Zposition Zrotation Xrotation Yrotation 
			JOINT LowerLeg_L
			{
				OFFSET 39.0811 0.0 -1.23785e-05
				CHANNELS 6 Xposition Yposition Zposition Zrotation Xrotation Yrotation 
				JOINT Foot_L
				{
					OFFSET 40.9854 0.0 -1.26872e-05
					CHANNELS 6 Xposition Yposition Zposition Zrotation Xrotation Yrotation 
					JOINT Toes_L
					{
						OFFSET 11.7543 0.0 0.0
						CHANNELS 6 Xposition Yposition Zposition Zrotation Xrotation Yrotation 
						End Site
						{
							OFFSET 0.0 0.0 0.0
						}
					}
				}
			}
		}
		JOINT UpperLeg_R
		{
			OFFSET -2.19251 6.46944 0.0
			CHANNELS 6 Xposition Yposition Zposition Zrotation Xrotation Yrotation 
			JOINT LowerLeg_R
			{
				OFFSET -39.0811 -0.00228153 -0.0401928
				CHANNELS 6 Xposition Yposition Zposition Zrotation Xrotation Yrotation 
				JOINT Foot_R
				{
					OFFSET -40.9854 0.0 0.0
					CHANNELS 6 Xposition Yposition Zposition Zrotation Xrotation Yrotation 
					JOINT Toes_R
					{
						OFFSET -11.7543 0.0 0.0
						CHANNELS 6 Xposition Yposition Zposition Zrotation Xrotation Yrotation 
						End Site
						{
							OFFSET 0.0 0.0 0.0
						}
					}
				}
			}
		}
	}
}
MOTION
Frames:	6
Frame Time:	0.0333333
0.000000 0.000000 0.000000 0.000000 0.000000 -0.000000 -2.716840 89.429000 -0.097411 88.913800 -1.044050 13.541600 15.735700 0.000005 -0.000001 87.890400 77.351100 -87.893000 8.984550 -0.406207 -0.000000 17.516200 -0.915212 0.135746 16.377300 -0.000001 -0.000001 2.260880 -4.691510 2.154280 6.456720 -0.000001 -0.000000 -8.922930 -3.643130 2.232810 12.994200 -0.242716 4.980390 -91.273500 6.444470 -78.796900 5.348090 -0.000007 -0.000001 -53.709200 41.608200 -30.498500 24.328600 0.000019 0.000005 7.371020 19.869100 -20.837800 22.291600 -0.000001 0.000005 7.255890 5.277890 0.683852 12.994500 -0.242716 -4.980390 89.049000 11.314300 -85.163600 -5.348130 -0.000001 -0.000004 -59.963200 31.252200 -21.000900 -24.328900 0.000322 -0.000009 2.667970 6.455090 -22.520500 -22.291500 -0.000108 -0.000004 14.827000 5.381190 -2.335760 -2.192480 -6.469440 -0.000000 -172.347000 -10.801600 -0.260632 39.081100 -0.000007 -0.000012 -0.282796 0.368376 37.513300 40.985400 -0.000006 -0.000013 -1.263260 3.967120 -73.191700 11.754300 -0.000000 0.000003 -0.000195 -0.001809 -16.645900 -2.192510 6.469440 -0.000001 174.677000 20.268600 -178.130000 -39.081100 -0.002282 -0.040193 -0.192925 0.264517 36.567300 -40.985400 0.000008 0.000006 5.630600 9.582020 -74.741800 -11.754300 -0.000006 -0.000006 -0.003241 -0.043303 -18.334200
0.000000 0.000000 0.000000 0.000000 0.000000 -0.000000 -2.712240 89.428400 -0.043267 88.922600 -1.019380 13.463800 15.735700 0.000005 -0.000001 87.883800 77.379500 -87.879700 8.984550 -0.406207 -0.000000 17.459400 -0.915544 0.148765 16.377300 -0.000001 -0.000001 2.332890 -4.625940 2.148660 6.456720 -0.000001 -0.000000 -8.985110 -3.561810 2.229830 12.994200 -0.242716 4.980390 -91.248800 6.318300 -78.796100 5.348090 -0.000007 -0.000001 -53.879800 41.615800 -30.366700 24.328600 0.000019 0.000005 7.347890 19.792900 -20.847600 22.291600 -0.000001 0.000005 7.205760 5.279400 0.642677 12.994500 -0.242716 -4.980390 89.013200 11.274500 -84.965300 -5.348130 -0.000001 -0.000004 -60.399500 29.744500 -20.568500 -24.328900 0.000322 -0.000009 2.964240 6.531190 -24.486500 -22.291500 -0.000108 -0.000004 15.424000 5.384110 -2.427500 -2.192480 -6.469440 -0.000000 -172.375000 -10.767500 -0.293450 39.081100 -0.000007 -0.000012 -0.285361 0.371981 37.493700 40.985400 -0.000006 -0.000013 -1.272700 3.954200 -73.221500 11.754300 -0.000000 0.000003 -0.000199 -0.001846 -16.647200 -2.192510 6.469440 -0.000001 174.700000 20.271400 -178.171000 -39.081100 -0.002282 -0.040193 -0.185148 0.253987 36.572200 -40.985400 0.000008 0.000006 5.772830 9.502740 -74.816200 -11.754300 -0.000006 -0.000006 -0.003303 -0.043987 -18.362100
0.000000 0.000000 0.000000 0.000000 0.000000 -0.000000 -2.715960 89.422000 0.004408 88.951100 -1.013440 13.399600 15.735700 0.000005 -0.000001 87.822500 77.410000 -87.821000 8.984550 -0.406207 -0.000000 17.397400 -0.940101 0.146800 16.377300 -0.000001 -0.000001 2.443790 -4.523790 2.157990 6.456720 -0.000001 -0.000000 -8.986780 -3.430780 2.243930 12.994200 -0.242716 4.980390 -91.237700 6.217650 -78.718400 5.348090 -0.000007 -0.000001 -53.955500 41.682000 -30.295300 24.328600 0.000019 0.000005 7.331740 19.788000 -20.809700 22.291600 -0.000001 0.000005 7.211050 5.280610 0.609388 12.994500 -0.242716 -4.980390 88.979900 11.199000 -84.761400 -5.348130 -0.000001 -0.000004 -60.816400 27.781600 -20.216100 -24.328900 0.000322 -0.000009 2.975230 5.843400 -27.055000 -22.291500 -0.000108 -0.000004 16.201700 5.390230 -2.621830 -2.192480 -6.469440 -0.000000 -172.395000 -10.813600 -0.321095 39.081100 -0.000007 -0.000012 -0.290173 0.378267 37.492800 40.985400 -0.000006 -0.000013 -1.269500 3.977360 -73.252800 11.754300 -0.000000 0.000003 -0.000201 -0.001856 -16.647600 -2.192510 6.469440 -0.000001 174.700000 20.257400 -178.221000 -39.081100 -0.002282 -0.040193 -0.180210 0.247034 36.605200 -40.985400 0.000008 0.000006 5.830140 9.466830 -74.879000 -11.754300 -0.000006 -0.000006 -0.003242 -0.043308 -18.334400
0.000000 0.000000 0.000000 0.000000 0.000000 -0.000000 -2.696170 89.420700 0.052002 88.959300 -1.061170 13.361000 15.735700 0.000005 -0.000001 87.698600 77.435900 -87.698200 8.984550 -0.406207 -0.000000 17.343800 -0.991724 0.152158 16.377300 -0.000001 -0.000001 2.616840 -4.417580 2.187640 6.456720 -0.000001 -0.000000 -8.933770 -3.276500 2.246360 12.994200 -0.242716 4.980390 -91.221700 6.130630 -78.707500 5.348090 -0.000007 -0.000001 -54.158100 41.580900 -30.020100 24.328600 0.000019 0.000005 7.423950 20.014900 -20.842000 22.291600 -0.000001 0.000005 7.106290 5.277160 0.703951 12.994500 -0.242716 -4.980390 88.957200 11.060600 -84.580300 -5.348130 -0.000001 -0.000004 -60.833900 26.095100 -20.253300 -24.328900 0.000322 -0.000009 2.954590 5.120940 -30.046500 -22.291500 -0.000108 -0.000004 16.970400 5.398170 -2.876920 -2.192480 -6.469440 -0.000000 -172.409000 -10.868100 -0.311274 39.081100 -0.000007 -0.000012 -0.286029 0.373013 37.481800 40.985400 -0.000006 -0.000013 -1.257010 3.980330 -73.286300 11.754300 -0.000000 0.000003 -0.000202 -0.001866 -16.647900 -2.192510 6.469440 -0.000001 174.707000 20.212400 -178.247000 -39.081100 -0.002282 -0.040193 -0.176679 0.242186 36.615800 -40.985400 0.000008 0.000006 5.907810 9.426440 -74.921800 -11.754300 -0.000006 -0.000006 -0.003150 -0.042283 -18.292700
0.000000 0.000000 0.000000 0.000000 0.000000 -0.000000 -2.675540 89.413500 0.083185 88.969300 -1.132280 13.323900 15.735700 0.000005 -0.000001 87.621900 77.466200 -87.626500 8.984550 -0.406207 -0.000000 17.281900 -1.022810 0.146236 16.377300 -0.000001 -0.000001 2.832410 -4.340820 2.249180 6.456720 -0.000001 -0.000000 -8.807610 -3.138390 2.255350 12.994200 -0.242716 4.980390 -91.208300 6.068370 -78.716900 5.348090 -0.000007 -0.000001 -54.308700 41.446700 -29.805800 24.328600 0.000019 0.000005 7.391870 20.033300 -20.742100 22.291600 -0.000001 0.000005 7.031220 5.278580 0.665269 12.994500 -0.242716 -4.980390 88.939400 10.884200 -84.400300 -5.348130 -0.000001 -0.000004 -60.406400 24.746500 -20.690400 -24.328900 0.000322 -0.000009 3.371480 5.140360 -33.330400 -22.291500 -0.000108 -0.000004 17.568200 5.402050 -3.003640 -2.192480 -6.469440 -0.000000 -172.423000 -10.907900 -0.320720 39.081100 -0.000007 -0.000012 -0.288882 0.376517 37.497700 40.985400 -0.000006 -0.000013 -1.259500 3.948420 -73.325400 11.754300 -0.000000 0.000003 -0.000199 -0.001847 -16.647200 -2.192510 6.469440 -0.000001 174.715000 20.139900 -178.296000 -39.081100 -0.002282 -0.040193 -0.174552 0.239025 36.650100 -40.985400 0.000008 0.000006 5.921060 9.431350 -74.954500 -11.754300 -0.000006 -0.000006 -0.003004 -0.040653 -18.226400
0.000000 0.000000 0.000000 0.000000 0.000000 -0.000000 -2.654580 89.411900 0.118978 88.956100 -1.214480 13.323100 15.735700 0.000005 -0.000001 87.542900 77.487600 -87.550100 8.984550 -0.406207 -0.000000 17.237700 -1.055250 0.145581 16.377300 -0.000001 -0.000001 3.050430 -4.259450 2.314450 6.456720 -0.000001 -0.000000 -8.645310 -3.036930 2.286430 12.994200 -0.242716 4.980390 -91.192200 5.997480 -78.736000 5.348090 -0.000007 -0.000001 -54.356400 41.404000 -29.666700 24.328600 0.000019 0.000005 7.332300 20.027600 -20.592400 22.291600 -0.000001 0.000005 7.088670 5.279370 0.643494 12.994500 -0.242716 -4.980390 88.925800 10.730600 -84.249500 -5.348130 -0.000001 -0.000004 -59.689100 23.502900 -21.392500 -24.328900 0.000322 -0.000009 4.408060 5.915250 -36.800000 -22.291500 -0.000108 -0.000004 18.534100 5.405400 -3.112910 -2.192480 -6.469440 -0.000000 -172.406000 -10.956700 -0.275974 39.081100 -0.000007 -0.000012 -0.289199 0.376949 37.496400 40.985400 -0.000006 -0.000013 -1.263530 3.908980 -73.362600 11.754300 -0.000000 0.000003 -0.000208 -0.001911 -16.649600 -2.192510 6.469440 -0.000001 174.723000 20.092100 -178.278000 -39.081100 -0.002282 -0.040193 -0.169284 0.231978 36.646100 -40.985400 0.000008 0.000006 5.971410 9.467670 -74.982200 -11.754300 -0.000006 -0.000006 -0.003093 -0.041653 -18.267100
